# xmcd CD database file
#
# Track frame offsets:
#	150
#	13721
#	31053
#	54417
#	79941
#	108779
#	133976
#	158419
#	182013
#
# Disc length: 2663 seconds
#
# Revision: 0
# Processed by: cddbd v1.5.2PL0 Copyright (c) Steve Scherf et al.
# Submitted via: CDex 1.70beta2
#
DISCID=640a6509
DTITLE=Stanisław Fiałkowski - Big Warsaw Band
DYEAR=2008
DGENRE=Jazz
TTITLE0=Stardust
TTITLE1=On, Two, Trie - Play
TTITLE2=Aromatic
TTITLE3=Night In Tunesia
TTITLE4=I Can't Get Started
TTITLE5=Spain
TTITLE6=Song For Maria
TTITLE7=Preludium e-moll
TTITLE8=Allegro z V Symfonii c-moll
EXTD=YEAR: 2008
EXTT0=
EXTT1=
EXTT2=
EXTT3=
EXTT4=
EXTT5=
EXTT6=
EXTT7=
EXTT8=
PLAYORDER=
